<svg width="75" height="22" viewBox="0 0 75 22" fill="none" xmlns="http://www.w3.org/2000/svg">
<path d="M49.3908 0.19043H46.7676V21.4636H49.3908V0.19043Z" fill="#214E41"/>
<path d="M56.0784 0.19043H53.4551V21.4636H56.0784V0.19043Z" fill="#214E41"/>
<path d="M73.7318 7.11546L72.4202 9.97209C71.2161 7.91618 69.1088 6.74756 66.6361 6.74756C62.2066 6.74756 59.1963 10.1236 59.1963 14.2787C59.1963 18.4338 62.2066 21.8098 66.6361 21.8098C68.9798 21.8098 71.0011 20.7494 72.2267 18.8882V21.4635H75.0005V7.11546H73.7318ZM67.0446 20.2733C63.9268 20.2733 62.2066 17.7196 62.2066 14.2787C62.2066 10.7512 63.9268 8.28408 67.0446 8.28408C69.9044 8.28408 72.0332 10.7944 72.0332 14.2787C72.0332 17.7629 69.9044 20.2733 67.0446 20.2733Z" fill="#214E41"/>
<path d="M23.1151 8.26265C22.2765 9.06337 21.6314 10.0589 21.2659 11.1626L19.9112 7.09403H18.6426V21.4421H21.4164V15.9885C21.4164 14.0192 21.6314 12.3745 22.427 11.2058C23.1151 10.2103 24.2977 9.6044 25.7813 9.6044C26.2544 9.6044 26.7274 9.64768 27.2005 9.73424V6.98582C26.921 6.94254 26.6414 6.9209 26.3619 6.9209C25.1578 6.94254 23.9967 7.41864 23.1151 8.26265Z" fill="#214E41"/>
<path d="M35.7368 6.74756C31.2858 6.74756 28.125 9.99373 28.125 14.2787C28.125 18.5636 31.2213 21.8098 35.7153 21.8098C37.3925 21.8314 39.0482 21.3337 40.4458 20.3815C41.6069 19.4942 42.4455 18.239 42.8326 16.8107H39.9728C39.5427 18.6285 38.4246 20.2949 35.9088 20.2949C32.361 20.2949 31.2213 17.5032 31.1568 14.5167V14.4734H43.1551C43.1551 14.3219 43.1551 14.2137 43.1551 14.1272C43.1766 9.84224 40.1448 6.74756 35.7368 6.74756ZM35.7583 8.26244C38.8976 8.26244 39.8867 10.8377 39.9728 12.9153H31.2428C31.5009 10.3833 32.791 8.26244 35.7583 8.26244Z" fill="#214E41"/>
<path d="M9.46101 11.011C12.2778 10.4267 14.4495 8.91183 14.4495 6.27161C14.4495 3.02545 12.0198 1.46729 8.27838 1.46729H0V21.4853H9.15998C12.5358 21.4853 15.2021 19.754 15.2021 16.0967C15.2021 13.0669 12.6649 11.2274 9.46101 11.011ZM7.33228 2.91724C10.0201 2.91724 11.4177 4.28063 11.4177 6.4231C11.4177 8.56557 9.89106 10.2319 7.09576 10.2319H3.09633V2.91724H7.33228ZM7.69782 19.9921H3.09633V11.8983H7.22477C10.1706 11.8983 11.9983 13.3483 11.9983 15.9668C11.9983 18.2608 10.4716 19.9921 7.69782 19.9921Z" fill="#214E41"/>
</svg>
